<svg viewBox="0 0 24 24" width="18" height="18" xmlns="http://www.w3.org/2000/svg">
  <path fill="#fff" d="m21.818 0-1.032.03a41 41 0 0 0-1.075.06c-2.692.186-10.145.93-16.916 3.68l-.623.253v19.98h19.646z" opacity=".4"/>
  <path fill="#a52115" d="M3.172 4.668V23h17.656V1s-9.343.29-17.656 3.668"/>
  <path fill="#a3a3a3" d="m13.404 5.828-.668.161v.769h-.474v.557h.474v1.518c0 .277.014.613.244.829q.221.202.626.202c.226 0 .4-.032.622-.115l-.115-.506a.9.9 0 0 1-.313.046q-.235 0-.309-.101c-.064-.078-.087-.175-.087-.566V7.315h.653l.138-.557h-.791zm-7.318.893q-.52 0-1.119.313v2.78h.668V7.42c.198-.065.294-.079.423-.079q.276 0 .387.138c.083.12.106.244.106.52v1.814h.653V7.95c0-.322-.023-.368-.06-.479.23-.097.378-.133.525-.133.23 0 .396.129.433.331.013.115.023.244.023.506V9.81h.667V7.9c0-.442-.074-.672-.23-.86a1.1 1.1 0 0 0-.815-.318c-.299 0-.552.074-.847.258a1.3 1.3 0 0 0-.81-.258m4.64 0c-.833 0-1.358.621-1.358 1.583 0 .948.515 1.565 1.335 1.565a1.52 1.52 0 0 0 1.081-.442l-.322-.432c-.23.18-.488.257-.709.257-.414 0-.676-.276-.708-.782h1.859c0-.147.014-.207.014-.267 0-.907-.433-1.482-1.197-1.482m5.362 0q-.53 0-1.137.28V9.81h.677V7.434a1 1 0 0 1 .414-.1c.138 0 .226.008.414.059l.152-.598a1.7 1.7 0 0 0-.52-.074m2.016 0c-.852 0-1.4.63-1.4 1.565 0 .948.558 1.578 1.41 1.578.837 0 1.384-.644 1.384-1.583v-.004c0-.92-.561-1.556-1.394-1.556m-7.42.575c.304 0 .498.23.525.612h-1.123c.056-.368.3-.612.599-.612m7.428.028c.4 0 .681.377.681.976 0 .598-.285.962-.68.962-.415 0-.705-.369-.705-.935 0-.626.276-.999.709-.999m-8.473 4.907V23h3.083v-5.992a64 64 0 0 1 3.876 2.025l4.225-2.693v-3.456l-4.225 2.692s-4.258-2.347-6.96-3.341"/>
</svg>
